<svg xmlns="http://www.w3.org/2000/svg" xmlns:xlink="http://www.w3.org/1999/xlink" version="1.1" x="0px" y="0px" viewBox="0 0 1122 1122" style="background: transparent;" xml:space="preserve">
<g id="Bg">
	<g>
		<g>
			
		</g>
	</g>
</g>
<g id="Object">
	<g>
		<path style="fill:#AAD4C8;" d="M640.151,460.2c0-43.711-35.465-79.134-79.155-79.134c-43.72,0-79.155,35.423-79.155,79.134    c0,29.682,16.353,55.497,40.522,69.053l1.644-52.513c0-21.485,17.43-38.915,38.936-38.915h2.209    c16.937,0,30.666,13.726,30.666,30.665v62.709C622.023,518.324,640.151,491.392,640.151,460.2z"/>
		<path style="fill:#616E7D;" d="M595.817,468.491c0-16.94-13.729-30.665-30.666-30.665h-2.209    c-21.506,0-38.936,17.43-38.936,38.915l-1.644,52.513l-3.646,115.695c-0.828,3.568-1.301,84.009-1.301,84.009    c-6.8-6.933-14.37-14.864-21.17-22.453c-15.878-17.711-45.052-29.646-64.443-31.855c-10.215-1.171-18.014,0.227-23.206,4.134    c-1.661,1.268-3.286,2.684-4.815,4.212c-10.007,9.856-17.56,25.775-10.573,37.443c3.02,5.096,8.21,8.479,13.726,12.029    c7.308,4.738,19.618,9.873,28.871,21.675c15.496,19.826,51.38,64.146,73.433,87.803c4.588,2.853,14.295,12.54,18.883,14.994    c13.917,8.894,25.286,17.258,29.228,21.79c3.081,3.529,21.3,12.858,21.3,12.858c14.731,9.329,41.542,18.05,72.51,18.05    c30.908,0,58.99,1.852,79.742-16.404h1.111l0.548-1.38c21.112-19.336,34.236-46.132,34.236-75.757c0-7.326,0-34.345,0-39.426    V674.458c0-6.945-1.528-30.212-21.094-37.199c-9.402-3.341-18.293-2.076-25.869,1.192l-1.771,0.076l-0.547,0.036    c-3.402-12.782-11.899-21.034-24.473-23.224c-15.182-2.627-25.703,1.906-32.027,6.497c-6.285-13.52-18.901-20.565-35.97-19.13    c-12.8,1.08-22.32,7.365-29.228,15.654v-87.159V468.491z"/>
		<path style="fill:#616E7D;" d="M737.62,591.623l15.711,17.484c3.023,3.398,8.497,3.192,11.16-0.49    c30.287-42.031,46.982-92.617,46.982-145.831c0-138.126-112.368-250.477-250.477-250.477c-9.477,0-19.088,0.53-28.59,1.589    c-115.258,12.84-207.949,105.875-220.392,221.224c-6.781,62.766,9.835,124.003,45.467,173.494    c2.642,3.701,8.118,3.888,11.182,0.508l15.689-17.466c2.23-2.473,2.396-6.137,0.508-8.876    c-25.149-36.745-38.349-80.628-37.03-126.264c3.193-110.764,92.355-201.57,202.986-206.726    c122.324-6.022,223.421,92.034,223.421,212.993c0,43.281-13.2,84.899-37.163,119.961    C735.205,585.504,735.374,589.151,737.62,591.623z"/>
		<path style="fill:#82BFAB;" d="M667.21,513.261l16.634,18.504c3.398,3.813,9.577,2.944,11.859-1.604    c10.501-20.752,16.032-43.584,16.032-67.375c0-70.957-50.378-132.987-119.831-147.527c-20.256-4.288-41.541-4.288-61.857,0    c-69.412,14.54-119.789,76.57-119.789,147.527c0,23.812,5.531,46.622,16.014,67.375c2.324,4.548,8.461,5.417,11.877,1.604    l16.616-18.504c1.87-2.079,2.303-5.024,1.247-7.589c-5.589-13.578-8.534-28.136-8.534-42.885c0-47.451,30-90.311,74.631-106.646    c24.932-9.102,52.838-9.102,77.748,0c44.637,16.335,74.622,59.195,74.622,106.646c0,14.749-2.944,29.307-8.497,42.885    C664.925,508.256,665.353,511.2,667.21,513.261z"/>
	</g>
</g>
</svg>